<?xml version="1.0" encoding="UTF-8" standalone="no"?>
<!DOCTYPE svg PUBLIC "-//W3C//DTD SVG 1.1//EN" "http://www.w3.org/Graphics/SVG/1.1/DTD/svg11.dtd">
<svg width="100%" height="100%" viewBox="0 0 2870 1914" version="1.1" xmlns="http://www.w3.org/2000/svg" xmlns:xlink="http://www.w3.org/1999/xlink" xml:space="preserve" xmlns:serif="http://www.serif.com/" style="fill-rule:evenodd;clip-rule:evenodd;stroke-linejoin:round;stroke-miterlimit:2;">
    <g id="cesky-hosting" serif:id="cesky hosting" transform="matrix(4.16667,0,0,4.16667,-339.117,-216.112)">
        <g transform="matrix(1,0,0,1,424.765,323.423)">
            <path d="M0,-259.732C-3.346,-254.378 -3.919,-248.356 -2.008,-242.237C-0.574,-235.929 3.058,-231.244 8.412,-227.899C10.611,-226.942 12.904,-225.891 15.104,-225.317C16.25,-225.127 17.111,-225.127 18.26,-224.935C28.487,-223.31 38.429,-219.391 48.657,-213.751L49.326,-213.368C54.776,-210.023 58.217,-205.434 59.938,-199.22C61.563,-193.294 60.894,-187.366 57.93,-181.822C54.394,-175.99 49.899,-172.453 43.591,-170.637C37.472,-169.107 31.737,-169.873 26.193,-172.836L26.193,-173.218C15.104,-179.528 3.25,-180.866 -9.082,-177.902C-21.318,-174.557 -30.59,-167.292 -36.995,-156.107C-43.496,-144.731 -45.025,-133.068 -41.68,-120.737C-38.333,-108.31 -31.069,-98.941 -19.98,-92.441C-9.082,-86.132 2.485,-84.506 14.913,-87.852C27.148,-91.39 36.612,-98.654 43.113,-109.744C46.363,-115.383 51.047,-118.921 56.974,-120.355C63.283,-122.075 69.209,-121.311 74.755,-118.155C80.107,-114.81 83.837,-110.126 85.27,-104.008C87.182,-98.081 86.417,-92.058 83.262,-86.323C70.454,-64.336 51.047,-49.711 26.956,-43.018C2.294,-36.421 -21.318,-39.672 -43.114,-52.291C-65.387,-65.1 -79.63,-84.124 -86.514,-108.883C-93.205,-133.546 -90.05,-157.254 -77.241,-179.336C-71.505,-189.374 -64.623,-197.786 -56.305,-204.669C-55.349,-205.434 -54.298,-206.294 -53.533,-207.059C-51.717,-208.588 -50.379,-210.405 -49.04,-212.507C-46.077,-218.053 -45.216,-223.788 -46.842,-230.002C-48.562,-236.502 -52.195,-241.091 -57.644,-244.245C-63.38,-247.687 -68.924,-248.164 -75.233,-246.54C-78.197,-245.774 -80.969,-244.437 -83.359,-242.62C-83.55,-242.429 -84.124,-242.237 -84.41,-241.855C-97.411,-231.244 -108.309,-218.053 -117.199,-202.662C-136.318,-169.299 -141.098,-133.929 -131.156,-96.743C-121.501,-59.556 -99.801,-31.26 -66.343,-11.95C-33.171,7.265 1.72,11.949 38.812,2.007C75.998,-8.032 104.198,-29.731 123.125,-63.094C142.532,-96.36 146.833,-131.921 136.988,-169.107C126.949,-206.294 105.536,-234.399 72.556,-253.804C56.782,-262.887 40.818,-268.526 24.376,-271.107C23.802,-271.49 23.229,-271.49 23.038,-271.49C19.884,-271.681 17.111,-271.49 13.956,-270.534C7.838,-269.004 3.058,-265.467 0,-259.732" style="fill:rgb(239,63,53);"/>
        </g>
        <g transform="matrix(1,0,0,1,108.059,474.751)">
            <path d="M0,-72.941L6.31,-83.551L17.972,-83.551L4.971,-66.057L-5.735,-66.057L-17.972,-83.551L-6.309,-83.551L0,-72.941ZM15.295,-15.2L25.333,-13.767C24.185,-6.12 21.413,-0.192 17.016,4.109C12.523,8.601 6.978,10.61 0.478,10.61C-7.647,10.61 -14.34,7.648 -19.31,1.719C-24.09,-4.208 -26.671,-12.81 -26.671,-23.995C-26.671,-31.261 -25.62,-37.57 -23.517,-42.924C-21.318,-48.373 -17.972,-52.484 -13.766,-55.255C-9.273,-57.836 -4.493,-59.174 0.478,-59.174C6.978,-59.174 12.331,-57.263 16.442,-53.535C20.744,-49.805 23.325,-44.644 24.376,-37.762L14.435,-36.232C13.479,-40.724 11.854,-44.261 9.559,-46.461C7.169,-48.754 4.206,-49.805 0.86,-49.805C-4.111,-49.805 -8.413,-47.799 -11.567,-43.689C-14.626,-39.579 -16.347,-33.078 -16.347,-24.378C-16.347,-15.392 -14.626,-8.892 -11.663,-4.783C-8.603,-0.67 -4.493,1.336 0.382,1.336C4.397,1.336 7.744,-0.002 10.324,-2.773C13.096,-5.355 14.817,-9.656 15.295,-15.2" style="fill:rgb(35,31,32);"/>
        </g>
        <g transform="matrix(1,0,0,1,166.563,415.576)">
            <path d="M0,69.784C-8.412,69.594 -15.104,66.63 -19.979,60.893C-25.236,54.967 -27.818,46.364 -27.818,35.56C-27.818,24.185 -25.236,15.485 -19.979,9.369C-14.817,3.058 -8.221,0.096 0,0L0,9.369C-4.494,9.463 -8.221,11.089 -11.471,14.53C-14.626,17.875 -16.347,22.559 -16.633,28.296L0,28.296L0,37.855L-17.398,37.855C-17.016,45.025 -15.009,50.857 -11.663,54.774C-8.508,58.407 -4.684,60.32 0,60.511L0,69.784ZM0,0L0.191,0C8.125,0 14.817,3.058 19.788,9.178C25.045,15.104 27.627,23.708 27.627,34.797C27.627,35.37 27.436,36.518 27.436,37.855L0,37.855L0,28.296L16.634,28.296C16.25,22.751 15.008,18.639 13.001,15.868C9.655,11.566 5.544,9.369 0.382,9.369L0,9.369L0,0ZM16.634,46.746L27.244,48.275C25.524,55.158 22.37,60.511 17.972,64.24C13.479,67.968 7.743,69.784 0.765,69.784L0,69.784L0,60.511L0.765,60.511C4.397,60.511 7.743,59.363 10.324,57.356C13.001,55.158 15.008,51.622 16.634,46.746" style="fill:rgb(35,31,32);"/>
        </g>
        <g transform="matrix(1,0,0,1,202.506,436.989)">
            <path d="M0,26.958L10.133,25.142C10.707,29.826 12.237,33.171 14.817,35.562C17.398,37.95 21.126,39.098 25.715,39.098C30.399,39.098 33.745,37.95 35.944,35.943C38.334,33.84 39.481,31.259 39.481,28.488C39.481,25.906 38.334,23.994 36.518,22.562C34.988,21.412 31.451,20.074 25.907,18.64C18.546,16.538 13.288,14.722 10.516,13.191C7.552,11.758 5.545,9.463 4.015,6.883C2.582,4.11 1.817,1.146 1.817,-2.198C1.817,-5.163 2.39,-7.935 3.729,-10.421C4.78,-13.001 6.5,-15.009 8.699,-16.73C10.133,-18.067 12.428,-19.119 15.009,-20.074C17.781,-21.03 20.744,-21.413 23.899,-21.413C28.487,-21.413 32.789,-20.648 36.327,-19.119C39.768,-17.685 42.444,-15.582 44.07,-13.001C45.694,-10.421 47.033,-7.073 47.606,-2.773L37.569,-1.243C37.187,-4.589 35.944,-7.266 33.745,-9.272C31.451,-11.185 28.487,-12.044 24.664,-12.044C19.789,-12.044 16.442,-11.185 14.626,-9.464C12.619,-7.839 11.663,-5.735 11.663,-3.538C11.663,-2.008 12.045,-0.766 12.81,0.383C13.67,1.721 15.009,2.581 16.634,3.538C17.781,3.921 20.744,4.876 25.715,6.311C32.789,8.604 37.76,10.229 40.724,11.566C43.496,13.002 45.694,14.913 47.416,17.493C49.041,20.074 49.805,23.421 49.805,27.34C49.805,31.067 48.849,34.605 46.842,37.95C44.834,41.297 42.062,43.973 38.334,45.789C34.605,47.606 30.399,48.371 25.715,48.371C17.781,48.371 11.854,46.745 7.743,43.017C3.729,39.48 1.051,34.031 0,26.958" style="fill:rgb(35,31,32);"/>
        </g>
        <g transform="matrix(1,0,0,1,264.548,391.39)">
            <path d="M0,92.727L0,0L10.228,0L10.228,52.672L34.223,25.525L47.606,25.525L24.663,50.475L49.805,92.727L37.186,92.727L17.207,58.504L10.228,66.056L10.228,92.727L0,92.727Z" style="fill:rgb(35,31,32);"/>
        </g>
        <g transform="matrix(1,0,0,1,337.869,493.58)">
            <path d="M0,-84.887L7.457,-102.381L20.744,-102.381L8.413,-84.887L0,-84.887ZM-15.869,16.157L-17.016,5.547C-14.817,6.311 -12.905,6.502 -11.28,6.502C-9.081,6.502 -7.169,6.119 -5.926,5.354C-4.588,4.493 -3.441,3.346 -2.581,1.818C-1.816,0.767 -0.86,-2.198 0.574,-6.692C0.765,-7.264 1.147,-8.22 1.529,-9.463L-21.318,-76.665L-10.324,-76.665L2.103,-37.568C3.728,-32.787 5.258,-27.531 6.5,-22.178C7.648,-27.339 9.081,-32.597 10.803,-37.568L23.516,-76.665L33.745,-76.665L10.803,-8.41C8.413,-1.146 6.5,3.922 5.067,6.693C3.346,10.421 1.338,13.193 -1.052,14.914C-3.346,16.729 -6.118,17.494 -9.464,17.494C-11.28,17.494 -13.479,17.113 -15.869,16.157" style="fill:rgb(35,31,32);"/>
        </g>
        <g transform="matrix(1,0,0,1,412.337,391.39)">
            <path d="M0,92.727L0,0L10.229,0L10.229,33.364C14.722,27.245 20.649,24.186 27.913,24.186C32.312,24.186 36.229,25.14 39.576,27.053C42.73,29.061 45.12,31.642 46.65,35.178C47.893,38.526 48.657,43.591 48.657,50.283L48.657,92.727L38.429,92.727L38.429,50.283C38.429,44.547 37.379,40.436 35.083,37.76C33.076,35.371 29.922,34.127 25.906,34.127C22.942,34.127 20.075,34.796 17.303,36.709C14.722,38.333 13,40.819 11.854,43.782C10.802,46.746 10.229,50.857 10.229,56.019L10.229,92.727L0,92.727Z" style="fill:rgb(35,31,32);"/>
        </g>
        <g transform="matrix(1,0,0,1,473.04,450.373)">
            <path d="M0,0.19C0,-12.238 2.964,-21.319 9.081,-27.341C14.242,-32.312 20.554,-34.797 27.914,-34.797L27.914,-25.428C22.943,-25.428 18.736,-23.422 15.39,-19.12C12.044,-14.819 10.323,-8.508 10.323,-0C10.323,8.602 12.044,15.104 15.39,19.405C18.736,23.707 22.943,25.713 27.914,25.713L27.914,34.987C19.597,34.987 12.809,32.025 7.552,26.096C2.39,20.169 0,11.375 0,0.19M27.914,-34.797C36.325,-34.797 42.923,-31.739 48.18,-25.812C53.341,-19.693 56.113,-11.473 56.113,-0.861C56.113,7.837 54.775,14.529 52.577,19.594C50.187,24.376 46.842,28.295 42.444,30.876C37.951,33.744 33.172,34.987 27.914,34.987L27.914,25.713C32.979,25.713 37.187,23.707 40.533,19.405C43.878,15.104 45.599,8.602 45.599,-0.382C45.599,-8.508 43.878,-14.819 40.533,-19.12C37.187,-23.422 32.979,-25.428 27.914,-25.428L27.914,-34.797Z" style="fill:rgb(35,31,32);"/>
        </g>
        <g transform="matrix(1,0,0,1,536.896,436.989)">
            <path d="M0,26.958L10.229,25.142C10.803,29.826 12.428,33.171 15.01,35.562C17.59,37.95 21.127,39.098 25.811,39.098C30.4,39.098 33.937,37.95 36.135,35.943C38.334,33.84 39.481,31.259 39.481,28.488C39.481,25.906 38.526,23.994 36.519,22.562C35.084,21.412 31.548,20.074 26.192,18.64C18.737,16.538 13.574,14.722 10.611,13.191C7.839,11.758 5.546,9.463 4.112,6.883C2.582,4.11 1.912,1.146 1.912,-2.198C1.912,-5.163 2.486,-7.935 3.728,-10.421C5.067,-13.001 6.691,-15.009 8.699,-16.73C10.229,-18.067 12.428,-19.119 15.2,-20.074C17.78,-21.03 20.744,-21.413 23.898,-21.413C28.774,-21.413 32.79,-20.648 36.327,-19.119C39.863,-17.685 42.443,-15.582 44.262,-13.001C45.981,-10.421 47.129,-7.073 47.607,-2.773L37.856,-1.243C37.282,-4.589 35.944,-7.266 33.745,-9.272C31.737,-11.185 28.583,-12.044 24.664,-12.044C20.076,-12.044 16.729,-11.185 14.627,-9.464C12.62,-7.839 11.663,-5.735 11.663,-3.538C11.663,-2.008 12.046,-0.766 13.001,0.383C13.766,1.721 15.01,2.581 16.921,3.538C17.78,3.921 20.744,4.876 25.811,6.311C32.981,8.604 38.048,10.229 40.819,11.566C43.782,13.002 45.981,14.913 47.415,17.493C49.137,20.074 50.091,23.421 50.091,27.34C50.091,31.067 48.944,34.605 46.937,37.95C45.025,41.297 42.062,43.973 38.334,45.789C34.701,47.606 30.4,48.371 25.811,48.371C17.973,48.371 12.046,46.745 8.03,43.017C3.92,39.48 1.34,34.031 0,26.958" style="fill:rgb(35,31,32);"/>
        </g>
        <g transform="matrix(1,0,0,1,621.213,404.582)">
            <path d="M0,69.308L1.337,79.153C-1.435,79.918 -4.111,80.204 -6.312,80.204C-10.038,80.204 -13.003,79.536 -15.01,78.197C-17.018,76.859 -18.547,75.235 -19.312,73.131C-20.173,70.933 -20.554,66.439 -20.554,59.747L-20.554,21.223L-28.203,21.223L-28.203,12.333L-20.554,12.333L-20.554,-4.206L-10.421,-10.896L-10.421,12.333L0,12.333L0,21.223L-10.421,21.223L-10.421,60.321C-10.421,63.475 -10.23,65.579 -9.848,66.439C-9.466,67.396 -8.893,68.161 -8.126,68.733C-7.267,69.308 -6.119,69.69 -4.494,69.69C-3.347,69.69 -1.818,69.498 0,69.308" style="fill:rgb(35,31,32);"/>
        </g>
        <g transform="matrix(1,0,0,1,0,308.508)">
            <path d="M631.249,108.407L641.382,108.407L641.382,175.609L631.249,175.609L631.249,108.407ZM631.249,82.883L641.382,82.883L641.382,95.98L631.249,95.98L631.249,82.883Z" style="fill:rgb(35,31,32);"/>
        </g>
        <g transform="matrix(1,0,0,1,656.773,415.576)">
            <path d="M0,68.541L0,1.339L9.273,1.339L9.273,10.992C13.479,3.536 19.979,0 28.201,0C31.832,0 35.179,0.765 38.144,2.103C41.105,3.536 43.495,5.448 45.024,7.838C46.46,10.228 47.605,13.096 48.181,16.25C48.563,18.258 48.754,21.987 48.754,27.245L48.754,68.541L38.525,68.541L38.525,27.724C38.525,23.134 38.144,19.596 37.378,17.303C36.709,15.104 35.179,13.288 33.172,11.949C31.164,10.42 28.87,9.941 26.098,9.941C21.7,9.941 17.972,11.375 14.817,14.34C11.663,17.494 10.229,23.324 10.229,31.833L10.229,68.541L0,68.541Z" style="fill:rgb(35,31,32);"/>
        </g>
        <g transform="matrix(1,0,0,1,744.338,442.63)">
            <path d="M0,41.39C-0.286,41.487 -0.575,41.487 -0.86,41.487C-9.178,41.487 -15.678,38.142 -20.172,31.45C-24.759,24.661 -26.957,16.92 -26.957,7.55C-26.957,1.049 -26.099,-4.685 -23.805,-10.039C-21.797,-15.488 -18.833,-19.789 -14.722,-22.754C-10.898,-25.525 -6.215,-27.054 -0.86,-27.054C-0.575,-27.054 -0.286,-27.054 0,-26.959L0,-17.685L-0.097,-17.685C-4.78,-17.685 -8.603,-15.679 -11.758,-11.569C-14.913,-7.459 -16.635,-1.34 -16.635,6.692C-16.635,15.58 -14.913,21.89 -11.758,26C-8.699,29.92 -4.78,31.928 0,31.928L0,41.39ZM-24.951,46.84L-14.913,48.37C-14.628,51.907 -13.479,54.296 -11.471,55.922C-8.987,58.026 -5.544,59.172 -1.242,59.172C-0.86,59.172 -0.479,59.076 0,59.076L0,68.444L-1.242,68.444C-8.317,68.444 -14.243,66.723 -18.449,63.187C-22.943,59.458 -25.141,54.105 -24.951,46.84M0,59.076C4.205,58.981 7.456,58.026 9.655,55.922C12.235,53.914 14.146,50.95 15.104,47.223C15.39,45.025 15.772,39.957 15.772,32.693C11.374,38.237 6.116,41.2 0,41.39L0,31.928L0.094,31.928C4.683,31.928 8.604,30.112 11.758,26C15.104,21.89 16.537,15.58 16.537,7.075C16.537,-1.148 14.911,-7.267 11.758,-11.377C8.412,-15.679 4.588,-17.685 0,-17.685L0,-26.959C6.595,-26.767 12.235,-23.613 16.729,-17.305L16.729,-25.715L25.81,-25.715L25.81,32.309C25.81,42.73 24.854,49.994 23.038,54.489C21.126,58.789 18.164,62.327 13.956,64.717C10.132,67.107 5.544,68.253 0,68.444L0,59.076Z" style="fill:rgb(35,31,32);"/>
        </g>
    </g>
</svg>
