<svg xmlns="http://www.w3.org/2000/svg" viewBox="0 0 238.2 53.2">
  <defs>
    <style>
      .cls-1 {
        fill:rgb(0,160,255);
      }
    </style>
  </defs>
  <title>Asset 85</title>
  <g id="Layer_2" data-name="Layer 2">
    <g id="Layer_1-2" data-name="Layer 1">
      <g>
        <g>
          <path class="cls-1" d="M232.4,13.8l5.8-10h-9.7V6.2h5.2l-5.8,10H238V13.8ZM218.3,10a3.4,3.4,0,0,1,1.1-2.8,3.9,3.9,0,0,1,2.9-1.1,5.7,5.7,0,0,1,3.3,1.1V4.4a7.7,7.7,0,0,0-3.4-.8,6.4,6.4,0,0,0-5.7,3.1,6.5,6.5,0,0,0,0,6.6,6.4,6.4,0,0,0,5.7,3.1,8.6,8.6,0,0,0,3.6-.8V12.8a7,7,0,0,1-3.4,1.2,4.6,4.6,0,0,1-3-1.1,3.9,3.9,0,0,1-1.1-2.9Zm-6.9,3.2a1.8,1.8,0,0,0-1.9,1.9,1.9,1.9,0,0,0,1.9,1.9,2,2,0,0,0,1.9-1.9A1.9,1.9,0,0,0,211.4,13.2Zm-15.8,4.1.9-2.2c.6-1.8,1.4-3.9,1.9-5.5h.1c.5,1.6,1.3,3.7,1.9,5.4l.9,2.4Zm.7-13.1-8.5,21.3h4.7l1.7-4.5h8.5l1.6,4.5h5L200.7,4.2ZM179,12.1c0,2.1,0,4.1.1,6.2H179c-1.3-1.9-2.6-3.7-4-5.5l-6.2-8.6h-4.4V25.5h4.5V17.6c0-2.1,0-4.2-.1-6.2h.1c1.3,1.9,2.5,3.7,3.9,5.5l6.3,8.6h4.3V4.2H179Zm-28.6,4.3h7.2V12.5h-7.2V8.3h8.3V4.2H145.8V25.5h13.3V21.4h-8.7ZM129,13.2l-6.2-9h-4.4V25.5h4.4V17c0-1.8,0-3.8-.1-5.3h.1l3.1,4.5,3,4.4,3.1-4.4q1.6-2.2,3-4.5V25.5h4.7V4.2h-4.4Zm-26.5,8.4A6.8,6.8,0,0,1,96,17.7a6.7,6.7,0,0,1,1.2-7.5,6.8,6.8,0,0,1,11.7,4.6,6.5,6.5,0,0,1-6.4,6.8Zm0-17.7a11,11,0,1,0,11,10.9A10.9,10.9,0,0,0,110.4,7,10.9,10.9,0,0,0,102.5,3.9ZM81.1,19.7c-1.3,1.2-3.3,1.7-6.2,1.7H73.6V8.3h1.2c2.4,0,4.4.2,5.9,1.3a6.2,6.2,0,0,1,2.4,5.2,6.3,6.3,0,0,1-2,4.9ZM83.7,6.4c-2.2-1.6-5.1-2.2-8.8-2.2H69V25.5h5.7c4.4,0,7.4-.9,9.5-2.6a10.1,10.1,0,0,0,3.5-8.1,9.9,9.9,0,0,0-4-8.5Z"/>
          <path class="cls-1" d="M43.4,24.8c-.5-5.3-8-9.5-17.1-9.5s-17,4.4-17.2,9.9C13,22,19.3,20,26.5,20S39.5,21.9,43.4,24.8Z"/>
          <path class="cls-1" d="M26.5,25.2c-11.4,0-20.7,5.1-21.4,11.7,5-3.8,12.7-6.2,21.4-6.2s16.4,2.4,21.4,6.1C47.1,30.3,37.8,25.2,26.5,25.2Z"/>
          <path class="cls-1" d="M5,36.9V32.5c0-2.7,1.5-5.3,4.1-7.3v-4c0-5.5,7.7-10,17.2-10s17.1,4.5,17.2,10v3.6c2.8,2.1,4.5,4.8,4.6,7.7v4.4l2.1,1.8a26.6,26.6,0,1,0-47.3,0Z"/>
          <path class="cls-1" d="M5.6,43A26.8,26.8,0,0,0,26.5,53.2,26.5,26.5,0,0,0,47.4,43c-5-3.5-12.5-5.7-20.9-5.7S10.6,39.5,5.6,43Z"/>
        </g>
        <g>
          <path class="cls-1" d="M125.4,45.5h-1.1V35.4h1.6v4.4a2.2,2.2,0,0,1,2.2-1.4c1.7,0,2.8,1.2,2.8,3.4s-1.1,3.9-3,3.9a2.1,2.1,0,0,1-2.1-1.2Zm.5-2.8a1.6,1.6,0,0,0,1.6,1.8c.9,0,1.7-.8,1.7-2.5s-.6-2.4-1.6-2.4a1.7,1.7,0,0,0-1.7,1.9Z"/>
          <path class="cls-1" d="M134.9,42.1a16.3,16.3,0,0,1,.5,2.2h.1a16.3,16.3,0,0,1,.5-2.2l1.1-3.6h1.6l-2.6,7.6c-.7,2.1-1.6,2.5-2.9,2.5h-1.1V47.1l1,.2c.7,0,1.1-.3,1.4-1.4l-2.5-7.4h1.7Z"/>
          <path class="cls-1" d="M152,41.9a23.4,23.4,0,0,1,.4,2.5h.1a20,20,0,0,1,.4-2.4l1.3-5.4h1.6l-2.2,8.9h-2.3l-1.2-5a20,20,0,0,1-.4-2.4h0a20,20,0,0,1-.4,2.4l-1.3,5h-2.2l-2.2-8.9h1.7l1.2,5.3a15.1,15.1,0,0,1,.5,2.5h.1a23.4,23.4,0,0,1,.4-2.5l1.3-5.3h1.9Z"/>
          <path class="cls-1" d="M161.7,43.4l1.4.4a2.7,2.7,0,0,1-2.9,1.9c-1.9,0-3.2-1.3-3.2-3.6s1.3-3.7,3.3-3.7a2.7,2.7,0,0,1,2.8,3c0,.3-.1.7-.1.9h-4.5c.1,1.3.7,2.1,1.8,2.1A1.2,1.2,0,0,0,161.7,43.4Zm-.2-2.1a.4.4,0,0,0,.1-.3,1.4,1.4,0,0,0-1.4-1.4c-.9,0-1.5.6-1.6,1.7Z"/>
          <path class="cls-1" d="M166.4,45.5h-1.1V35.4h1.6v4.4a2.1,2.1,0,0,1,2.2-1.4c1.7,0,2.7,1.2,2.7,3.4s-1.1,3.9-2.9,3.9a2.1,2.1,0,0,1-2.1-1.2Zm.5-2.8c0,1.3.8,1.8,1.5,1.8s1.8-.8,1.8-2.5-.6-2.4-1.6-2.4a1.7,1.7,0,0,0-1.7,1.9Z"/>
          <path class="cls-1" d="M178.6,38.9a1.6,1.6,0,0,0,.5-1.1l1.3.5a1.5,1.5,0,0,1-1.2,1.2,2.8,2.8,0,0,1,.3,1.3c0,1.6-1.3,2.4-3,2.4h-.9a.8.8,0,0,0-.4.7c0,.3.3.5.7.5h1.8c1.6,0,2.4.8,2.4,2s-2,2.4-3.8,2.4-3.1-.4-3.1-1.8.6-1.5,1.8-1.6a1,1,0,0,1-1.1-1.1,1.4,1.4,0,0,1,1.1-1.3,2.1,2.1,0,0,1-1.4-2.1c0-1.5,1.2-2.4,2.9-2.4A3.5,3.5,0,0,1,178.6,38.9Zm-2.2,8.7c1.4,0,2.2-.3,2.2-1.1s-.2-.8-1-.8H176c-.9,0-1.4.3-1.4.9S175.3,47.6,176.4,47.6Zm.1-5.5c.9,0,1.4-.4,1.4-1.3s-.5-1.3-1.4-1.3a1.3,1.3,0,0,0,0,2.6Z"/>
          <path class="cls-1" d="M184.6,45.5h-.9A1.5,1.5,0,0,1,182,44V35.4h1.6v8.2c0,.5.2.6.6.6h.5Z"/>
          <path class="cls-1" d="M186.1,42c0-2.4,1.3-3.6,3.3-3.6s3.2,1.2,3.2,3.6-1.3,3.7-3.2,3.7S186.1,44.3,186.1,42Zm1.6,0c0,1.6.6,2.4,1.7,2.4s1.7-.8,1.7-2.4-.6-2.4-1.7-2.4S187.7,40.4,187.7,42Z"/>
          <path class="cls-1" d="M195.9,45.5h-1V35.4h1.5v4.4a2.3,2.3,0,0,1,2.3-1.4c1.7,0,2.7,1.2,2.7,3.4s-1.1,3.9-3,3.9a2.2,2.2,0,0,1-2.1-1.2Zm.5-2.8a1.6,1.6,0,0,0,1.6,1.8c1,0,1.8-.8,1.8-2.5s-.7-2.4-1.7-2.4a1.7,1.7,0,0,0-1.7,1.9Z"/>
          <path class="cls-1" d="M207.8,43.4l1.4.4a2.5,2.5,0,0,1-2.8,1.9c-1.9,0-3.2-1.3-3.2-3.6s1.2-3.7,3.2-3.7,2.8,1.2,2.8,3a2.5,2.5,0,0,1-.1.9h-4.4c.1,1.3.6,2.1,1.7,2.1A1.2,1.2,0,0,0,207.8,43.4Zm-.1-2.1V41a1.3,1.3,0,0,0-1.4-1.4c-.9,0-1.5.6-1.6,1.7Z"/>
        </g>
      </g>
    </g>
  </g>
</svg>
