<svg height="35" viewBox="0 0 249.00001 35" width="249" xmlns="http://www.w3.org/2000/svg"><path d="m-2113.7757-37.91208-3.583-.514c-1.237-.168-2.175-.637-2.814-1.192-.597-.598-.896-1.322-.896-2.177 0-2.09 1.449-3.839 4.69-3.839 2.004 0 4.31.257 6.228 2.092l3.753-3.712c-2.603-2.558-5.545-3.538-9.81-3.538-6.612 0-10.58 3.794-10.58 9.212 0 2.518.724 4.522 2.176 5.972 1.28 1.276 3.242 2.131 5.886 2.517l3.667.51c1.409.218 2.048.514 2.688 1.067.64.597.939 1.454.939 2.559 0 2.518-1.791 3.756-5.374 3.756-2.903 0-5.419-.642-7.339-2.562 0 0-3.541-3.49-11.575-22.776 0 0-.797-.207-1.637 0h-3.013l-11.046 30.37h6.185l1.833-5.374h1.818l.012-.048h7.949l-3.674-5.013h-3.411l-.013.07h-1.017l3.838-11.048.044.134v-.015c4.077 10.554 9.864 17.539 9.864 17.539 2.943 3.026 6.483 4.01 11.09 4.01 6.313 0 11.261-3.327 11.261-9.213 0-2.731-.682-4.905-2.347-6.44-1.315-1.193-3.024-1.962-5.796-2.347zm-74.956 17.745h5.929v-30.37h-5.929zm-17.49-11.943h5.59v1.15c0 1.578-.385 2.9-1.366 4.054-.981 1.064-2.389 1.706-4.224 1.706-1.661 0-2.941-.598-3.795-1.579-1.152-1.237-1.449-2.731-1.449-8.572 0-5.803.296-7.294 1.449-8.533.854-.979 2.134-1.619 3.795-1.619 3.072 0 4.777 1.534 5.461 4.438h5.969c-.809-5.078-4.392-9.726-11.43-9.726-3.411 0-6.014 1.149-8.189 3.325-3.07 3.071-2.985 6.869-2.985 12.115s-.085 9.041 2.985 12.112c2.175 2.175 4.778 3.327 8.189 3.327 3.242 0 6.145-.896 8.575-3.456 2.089-2.215 2.9-4.862 2.9-9.255v-4.435h-11.475zm40.649 0h5.586v1.15c0 1.578-.384 2.9-1.365 4.054-.979 1.064-2.389 1.706-4.222 1.706-1.665 0-2.944-.598-3.796-1.579-1.153-1.237-1.451-2.731-1.451-8.572 0-5.803.297-7.294 1.451-8.533.853-.979 2.132-1.619 3.796-1.619 3.07 0 4.776 1.534 5.459 4.438h5.971c-.809-5.078-4.392-9.726-11.43-9.726-3.412 0-6.016 1.149-8.189 3.325-3.073 3.071-2.987 6.869-2.987 12.115 0 5.245-.086 9.041 2.987 12.112 2.173 2.175 4.777 3.327 8.189 3.327 3.242 0 6.14-.896 8.573-3.456 2.089-2.215 2.9-4.862 2.9-9.255v-4.435h-11.472zm65.41 11.943h20.004v-5.292h-14.077v-7.378h11.986v-5.288h-11.986v-7.122h14.077v-5.29h-20.004zm120.492-13.095c2.944-1.023 5.546-3.753 5.546-7.975 0-5.078-3.666-9.301-9.853-9.301h-11.901v30.369h5.928v-12.112h4.267l5.927 12.112h6.867zm-4.692-3.968h-5.587v-8.018h5.587c2.604 0 4.311 1.621 4.311 4.011-.001 2.388-1.708 4.007-4.311 4.007zm-37.32 17.062h20.005v-5.291h-14.077v-7.377h11.988v-5.289h-11.987v-7.122h14.077v-5.29h-20.005v30.369zm-30.922-21.069c0-5.078-3.668-9.301-9.853-9.301h-11.901v30.37h5.928v-12.113h4.267l5.928 12.113h6.87l-6.783-13.095c2.943-1.023 5.544-3.752 5.544-7.974zm-10.237 4.005h-5.589v-8.016h5.589c2.602 0 4.309 1.621 4.309 4.011 0 2.388-1.707 4.005-4.309 4.005zm25.206 6.486-6.099-19.792h-6.139l10.021 30.369h4.436l10.067-30.369h-6.185z" fill="#5c8a8c" transform="translate(2219.3959 52.912082)"/></svg>