<svg xmlns="http://www.w3.org/2000/svg" viewBox="0 0 133.23 80.96">
  <defs>
    <style>
      .cls-1 {
        fill: #1b1918;
      }

      .cls-2 {
        fill: #1bbbe9;
      }

      .cls-3 {
        fill: #fffcfd;
      }
    </style>
  </defs>
  <title>Asset 101</title>
  <g id="Layer_2" data-name="Layer 2">
    <g id="Layer_1-2" data-name="Layer 1">
      <g>
        <g>
          <path class="cls-1" d="M3,77.78H1.9V67.72H3.48v4.41a2.19,2.19,0,0,1,2.23-1.48c1.7,0,2.72,1.25,2.72,3.48S7.33,78,5.45,78a2,2,0,0,1-2.08-1.19ZM3.46,75A1.58,1.58,0,0,0,5,76.8c1,0,1.79-.81,1.79-2.53s-.63-2.34-1.64-2.34a1.76,1.76,0,0,0-1.72,1.9Z"/>
          <path class="cls-1" d="M12.46,74.42A14.07,14.07,0,0,1,13,76.63H13a15.42,15.42,0,0,1,.52-2.2l1.1-3.61h1.65l-2.63,7.55C13,80.44,12,80.91,10.74,80.91a3.67,3.67,0,0,1-1.1-.17l.18-1.37a1.8,1.8,0,0,0,.92.23c.69,0,1.11-.35,1.48-1.42L9.64,70.82h1.73Z"/>
          <path class="cls-1" d="M29.57,74.24c.31,1.34.45,2.44.45,2.44h.06a20.8,20.8,0,0,1,.44-2.43l1.26-5.34h1.63l-2.18,8.87H28.91l-1.24-4.94a12.78,12.78,0,0,1-.36-2.43h-.06a16.32,16.32,0,0,1-.41,2.43l-1.23,4.94H23.33l-2.18-8.87h1.7l1.27,5.31c.31,1.33.45,2.46.45,2.46h.06a21.15,21.15,0,0,1,.44-2.44l1.32-5.33h1.88Z"/>
          <path class="cls-1" d="M39.26,75.65l1.37.41c-.32,1.42-1.51,1.9-2.85,1.9-1.9,0-3.19-1.3-3.19-3.59s1.25-3.72,3.25-3.72a2.7,2.7,0,0,1,2.82,3,3.83,3.83,0,0,1-.12.93H36.11c.06,1.27.65,2.12,1.73,2.12A1.32,1.32,0,0,0,39.26,75.65Zm-.14-2.07a1.27,1.27,0,0,0,0-.28,1.35,1.35,0,0,0-1.37-1.44c-.92,0-1.51.65-1.62,1.72Z"/>
          <path class="cls-1" d="M44,77.78H42.89V67.72h1.58v4.41a2.19,2.19,0,0,1,2.23-1.48c1.7,0,2.72,1.25,2.72,3.48S48.33,78,46.44,78a2,2,0,0,1-2.08-1.19Zm.5-2.74A1.57,1.57,0,0,0,46,76.8c1,0,1.79-.81,1.79-2.53s-.63-2.34-1.64-2.34a1.75,1.75,0,0,0-1.71,1.9Z"/>
          <path class="cls-1" d="M56.13,71.17c.32-.21.41-.53.53-1.06l1.31.45a1.6,1.6,0,0,1-1.21,1.27,2.49,2.49,0,0,1,.32,1.29c0,1.62-1.33,2.4-3,2.4a2.72,2.72,0,0,1-.89-.11.73.73,0,0,0-.42.68c0,.33.24.51.68.51h1.81c1.56,0,2.42.76,2.42,2,0,1.87-2,2.37-3.85,2.37-1.6,0-3.12-.4-3.12-1.8,0-.87.63-1.44,1.8-1.53a1.1,1.1,0,0,1-1-1.13,1.3,1.3,0,0,1,1.09-1.28,2.1,2.1,0,0,1-1.39-2.1c0-1.58,1.17-2.47,2.91-2.47A3.5,3.5,0,0,1,56.13,71.17ZM54,79.87c1.4,0,2.2-.27,2.2-1,0-.49-.29-.81-1.07-.81H53.57c-.86,0-1.36.29-1.36.9S52.92,79.87,54,79.87Zm.11-5.44a1.33,1.33,0,1,0-1.33-1.32A1.22,1.22,0,0,0,54.13,74.43Z"/>
          <path class="cls-1" d="M62.2,77.76a3.83,3.83,0,0,1-1,.14,1.52,1.52,0,0,1-1.7-1.6V67.72h1.58v8.21a.55.55,0,0,0,.62.6,1.59,1.59,0,0,0,.5-.08Z"/>
          <path class="cls-1" d="M63.72,74.27c0-2.37,1.28-3.62,3.24-3.62s3.24,1.25,3.24,3.62S68.92,78,67,78,63.72,76.63,63.72,74.27Zm1.55,0c0,1.66.56,2.45,1.69,2.45s1.67-.79,1.67-2.45-.57-2.35-1.67-2.35S65.27,72.69,65.27,74.27Z"/>
          <path class="cls-1" d="M73.5,77.78H72.43V67.72H74v4.41a2.19,2.19,0,0,1,2.23-1.48c1.7,0,2.73,1.25,2.73,3.48S77.87,78,76,78a2,2,0,0,1-2.08-1.19ZM74,75a1.58,1.58,0,0,0,1.56,1.76c1,0,1.8-.81,1.8-2.53s-.64-2.34-1.65-2.34A1.75,1.75,0,0,0,74,73.83Z"/>
          <path class="cls-1" d="M85.42,75.65l1.37.41c-.32,1.42-1.51,1.9-2.85,1.9-1.9,0-3.19-1.3-3.19-3.59S82,70.65,84,70.65a2.7,2.7,0,0,1,2.82,3,3.83,3.83,0,0,1-.12.93H82.27c.06,1.27.65,2.12,1.73,2.12A1.32,1.32,0,0,0,85.42,75.65Zm-.14-2.07a2.53,2.53,0,0,0,0-.28,1.35,1.35,0,0,0-1.37-1.44c-.91,0-1.5.65-1.61,1.72Z"/>
        </g>
        <g>
          <path class="cls-2" d="M56.39,3.34c5.65,3.1,10.88,8.9,13.28,17.94s.7,16.52-2.55,22c-4.94,8-13,12-24.29,15S22.77,62,14.44,57.44C8.79,54.33,3.56,48.68,1.16,39.64S.31,23,3.7,17.46c5-8,13-12,24.16-15C39.3-.62,48.06-1.32,56.39,3.34Z"/>
          <path class="cls-3" d="M19.66,38.37a7.82,7.82,0,0,1-5.79,2.26,7.84,7.84,0,0,1-5.79-2.26c-1.83-2-2.26-4.38-2.26-7.63s.43-5.65,2.26-7.63a7.84,7.84,0,0,1,5.79-2.26,7.82,7.82,0,0,1,5.79,2.26c1.84,2,2.26,4.38,2.26,7.63S21.5,36.53,19.66,38.37Zm-3-13a4,4,0,0,0-2.83-1.13,4,4,0,0,0-2.82,1.13c-1.13,1.13-1.27,3.25-1.27,5.37s.14,4.1,1.27,5.37a4,4,0,0,0,2.82,1.13,4,4,0,0,0,2.83-1.13C17.83,35,18,32.86,18,30.74S18,26.64,16.7,25.37Z"/>
          <path class="cls-3" d="M39,40.49V28.62c0-3-1.7-4.38-4-4.38s-4,1.27-4,4.38V40.49h-4V21.13H31v2A7.06,7.06,0,0,1,36.19,21a7.3,7.3,0,0,1,4.8,1.7c1.56,1.41,2,3.25,2,5.51V40.63H39Z"/>
          <path class="cls-3" d="M51.87,31.87c0,3.39,1.69,5.37,4.94,5.37a5.54,5.54,0,0,0,4.66-2L64,37.66a9,9,0,0,1-7.21,3c-4.8,0-8.75-2.55-8.75-9.89,0-6.22,3.24-9.89,8.19-9.89,5.22,0,8.19,3.82,8.19,9.32v1.7Zm8.19-5.37a4.23,4.23,0,0,0-7.63,0,7,7,0,0,0-.56,2.69h8.76A15.2,15.2,0,0,0,60.06,26.5Z"/>
          <path d="M88,39.07a6.24,6.24,0,0,1-4.52,1.56A6.22,6.22,0,0,1,78,38.08v2.41H76.16V13.22h2V24.38a6.21,6.21,0,0,1,5.51-2.54,7,7,0,0,1,4.52,1.55c1.84,1.84,2.4,4.95,2.4,7.77S90,37.24,88,39.07ZM83.37,23.54c-4.52,0-5.23,3.95-5.23,7.76s.71,7.77,5.23,7.77,5.22-4,5.22-7.77S87.75,23.54,83.37,23.54Z"/>
          <path d="M96.5,13.22h2.41v2.41H96.5ZM96.79,22h2V40.34h-2Z"/>
          <path d="M106.67,35.68V23.54h-2.54V22.12h2.54V16.19h2v5.93h4.1v1.42h-4.1V35.68c0,2,.85,3.11,2.83,3.11h1.27v1.7h-1.7C108.09,40.49,106.67,38.37,106.67,35.68Z"/>
          <path d="M118,9.55a4.31,4.31,0,1,1-4.38,4.24A4.12,4.12,0,0,1,118,9.55Zm-.14.71a3.38,3.38,0,0,0-3.39,3.53,3.46,3.46,0,1,0,6.92,0,3.58,3.58,0,0,0-3.53-3.53Zm-.7,5.93h-.85V11.67a5.32,5.32,0,0,1,1.55-.14,3,3,0,0,1,1.41.28,1.09,1.09,0,0,1,.43,1c0,.57-.43.85-.85,1.13h0c.42.14.57.57.71,1.13s.28,1,.28,1.13H119a1.82,1.82,0,0,1-.28-1.13.94.94,0,0,0-1-.71h-.56Zm0-2.54h.56c.57,0,1.13-.14,1.13-.71,0-.42-.28-.7-1.13-.7H117v1.41Z"/>
          <g>
            <path class="cls-2" d="M82.1,60.83V55.18a2.26,2.26,0,1,0-4.52,0v5.65H76.31V47.69h1.27v5.08a3.54,3.54,0,0,1,2.54-1.13A3.09,3.09,0,0,1,83.37,55v5.8Z"/>
            <path class="cls-2" d="M92.41,59.84a3.77,3.77,0,0,1-5.09,0,4.65,4.65,0,0,1-1.13-3.53,4.49,4.49,0,0,1,1.13-3.54,3.79,3.79,0,0,1,5.09,0,4.66,4.66,0,0,1,1.13,3.54A4.48,4.48,0,0,1,92.41,59.84Zm-.85-6.36a2.38,2.38,0,0,0-3.39,0,3.89,3.89,0,0,0-.71,2.83,4.74,4.74,0,0,0,.71,2.82,2.38,2.38,0,0,0,3.39,0,3.88,3.88,0,0,0,.71-2.82A4.68,4.68,0,0,0,91.56,53.48Z"/>
            <path class="cls-2" d="M99.19,61a4.71,4.71,0,0,1-3.67-1.27l.84-.85a3.89,3.89,0,0,0,2.83,1c1.55,0,2.4-.57,2.4-1.56S101.17,57,100,57l-1.56-.14c-1.69-.14-2.68-1-2.68-2.4,0-1.7,1.41-2.68,3.39-2.68a5,5,0,0,1,3.25,1l-.85.85a3.49,3.49,0,0,0-2.4-.7c-1.27,0-2,.56-2,1.55,0,.71.42,1.27,1.55,1.27l1.42.14c1.55.14,2.68.71,2.68,2.4S101.45,61,99.19,61Z"/>
            <path class="cls-2" d="M107.94,60.83a2.19,2.19,0,0,1-2.26-2.41v-5.5h-1.13v-1h1.13V49.1H107v2.83h2v1h-2v5.5a1.13,1.13,0,0,0,1.27,1.28h.7v1.13Z"/>
            <path class="cls-2" d="M111.48,49.24V47.69H113v1.55Zm.14,11.59v-9h1.27v9Z"/>
            <path class="cls-2" d="M121.93,60.83V55.32a2.26,2.26,0,1,0-4.52,0v5.51h-1.27v-9h1.27v1A3.54,3.54,0,0,1,120,51.64,3.16,3.16,0,0,1,123.2,55v5.8Z"/>
            <path class="cls-2" d="M129.41,64.92a3.68,3.68,0,0,1-3.1-1.27l.84-.85a2.86,2.86,0,0,0,2.12.85,2.53,2.53,0,0,0,2.55-2.82V59.41a2.73,2.73,0,0,1-2.55,1.13,2.5,2.5,0,0,1-2.12-.84A5.41,5.41,0,0,1,126,55.88c0-1.55.15-2.82,1.13-3.81a3.33,3.33,0,0,1,2.26-.85A3.08,3.08,0,0,1,132,52.35V51.22h1.27v9.32C133.23,63.37,131.82,64.92,129.41,64.92Zm.29-12.15c-2,0-2.26,1.7-2.26,3.39s.28,3.39,2.26,3.39S132,57.86,132,56.16,131.53,52.77,129.7,52.77Z"/>
          </g>
        </g>
      </g>
    </g>
  </g>
</svg>
