<?xml version="1.0" encoding="UTF-8" standalone="no"?>
<!-- Generator: Gravit.io -->

<svg
   xmlns:dc="http://purl.org/dc/elements/1.1/"
   xmlns:cc="http://creativecommons.org/ns#"
   xmlns:rdf="http://www.w3.org/1999/02/22-rdf-syntax-ns#"
   xmlns:svg="http://www.w3.org/2000/svg"
   xmlns="http://www.w3.org/2000/svg"
   xmlns:sodipodi="http://sodipodi.sourceforge.net/DTD/sodipodi-0.dtd"
   xmlns:inkscape="http://www.inkscape.org/namespaces/inkscape"
   style="isolation:isolate"
   viewBox="0 0 311 85"
   width="311"
   height="85"
   version="1.1"
   id="svg123"
   sodipodi:docname="w4u-logo.svg"
   inkscape:version="0.92.2 2405546, 2018-03-11">
  <metadata
     id="metadata127">
    <rdf:RDF>
      <cc:Work
         rdf:about="">
        <dc:format>image/svg+xml</dc:format>
        <dc:type
           rdf:resource="http://purl.org/dc/dcmitype/StillImage" />
      </cc:Work>
    </rdf:RDF>
  </metadata>
  <sodipodi:namedview
     pagecolor="#ffffff"
     bordercolor="#666666"
     borderopacity="1"
     objecttolerance="10"
     gridtolerance="10"
     guidetolerance="10"
     inkscape:pageopacity="0"
     inkscape:pageshadow="2"
     inkscape:window-width="2560"
     inkscape:window-height="1385"
     id="namedview125"
     showgrid="false"
     inkscape:zoom="2.8102379"
     inkscape:cx="63.583364"
     inkscape:cy="-12.086633"
     inkscape:window-x="1920"
     inkscape:window-y="27"
     inkscape:window-maximized="1"
     inkscape:current-layer="g121" />
  <defs
     id="defs5">
    <clipPath
       id="_clipPath_OCYwvVAnoIaTI1LlkNDWOdcW7Vmv5mWz">
      <rect
         width="311"
         height="85"
         id="rect2" />
    </clipPath>
  </defs>
  <g
     clip-path="url(#_clipPath_OCYwvVAnoIaTI1LlkNDWOdcW7Vmv5mWz)"
     id="g121">
    <g
       id="g119"
       transform="matrix(1.2566245,0,0,1.2566245,-36.524616,3.1167652)">
      <g
         id="g102">
        <g
           id="g90">
          <path
             d="m 132.737,12.83 v 35.692 h 27.061 v -8.923 h -18.041 v -5.354 h 14.433 v -7.138 h -14.433 v -5.354 h 18.041 V 12.83 Z"
             id="path88"
             inkscape:connector-curvature="0"
             style="fill:#000000" />
        </g>
        <path
           d="m 255.33,12.846 v 8.423 12.993 c -0.001,3.942 -1.428,5.353 -5.413,5.353 -3.985,0 -5.412,-1.411 -5.412,-5.354 V 21.269 12.846 h -9.021 v 23.2 c 0,7.884 6.462,12.491 14.433,12.491 7.971,0 14.433,-4.607 14.433,-12.491 v -23.2 z"
           id="path92"
           inkscape:connector-curvature="0"
           style="fill:#008ab7" />
        <g
           id="g96">
          <path
             d="M 120.108,12.83 116.5,30.676 111.088,12.83 h -9.021 L 96.655,30.676 93.047,12.83 h -9.021 l 7.217,35.692 h 9.02 l 6.315,-20.82 6.314,20.82 h 9.02 l 7.217,-35.692 z"
             id="path94"
             inkscape:connector-curvature="0"
             style="fill:#000000" />
        </g>
        <path
           d="m 228.355,34.261 v -3.585 h -9.021 v 3.585 h -7.216 L 228.355,12.846 H 217.53 L 199.489,36.64 v 4.759 h 19.845 v 7.139 h 9.021 z"
           id="path98"
           inkscape:connector-curvature="0"
           style="fill:#008ab7" />
        <path
           d="m 192.551,32.646 c -1.02,-1.384 -2.686,-2.328 -4.994,-2.833 v -0.244 c 1.694,-0.277 3.051,-1.099 4.073,-2.467 1.021,-1.368 1.532,-3.119 1.532,-5.252 0,-3.142 -1.166,-5.434 -3.5,-6.875 -2.334,-1.441 -6.082,-2.161 -11.247,-2.161 h -1.734 -9.601 -1.733 v 35.707 h 1.733 11.892 1.734 c 4.119,0 7.377,-0.911 9.777,-2.735 2.399,-1.824 3.599,-4.364 3.599,-7.621 0.001,-2.295 -0.509,-4.135 -1.531,-5.519 z M 177.115,19.351 c 2.197,0 3.804,0.296 4.821,0.886 1.015,0.592 1.524,1.254 1.524,2.615 0,1.458 -0.467,2.19 -1.401,2.822 -0.933,0.632 -2.441,0.948 -4.523,0.948 h -3.165 v -7.271 z m -2.751,22.015 0.008,-7.923 h 3.349 c 4.154,0 6.231,0.808 6.231,3.658 0,1.583 -0.488,2.455 -1.462,3.223 -0.975,0.767 -2.493,1.042 -4.538,1.042 z"
           id="path100"
           inkscape:connector-curvature="0"
           style="fill:#000000" />
      </g>
      <g
         id="g117">
        <clipPath
           id="_clipPath_GmYe3p0KDLK7E9hFT22sXPiPrYvDi5tb">
          <path
             d="M 82.749,48.522 46.65,48.538 V 12.814 l 29.363,0.016 z"
             id="path104"
             inkscape:connector-curvature="0"
             style="fill:#ffffff" />
        </clipPath>
        <g
           clip-path="url(#_clipPath_GmYe3p0KDLK7E9hFT22sXPiPrYvDi5tb)"
           id="g115">
          <g
             id="g113">
            <rect
               x="46.650002"
               y="12.83"
               width="36.098"
               height="7.7399998"
               id="rect107"
               style="fill:#008ab7" />
            <rect
               x="46.650002"
               y="26.822001"
               width="36.098"
               height="7.7399998"
               id="rect109"
               style="fill:#008ab7" />
            <rect
               x="46.650002"
               y="40.780998"
               width="36.098"
               height="7.7399998"
               id="rect111"
               style="fill:#008ab7" />
          </g>
        </g>
      </g>
    </g>
  </g>
</svg>
